# xmcd
#
# Track frame offsets: 
#        150
#        26206
#        47828
#        78494
#        99041
#        122991
#        148690
#        176926
#        205327
#        229451
#        248446
#        272668
#
# Disc length: 3985 seconds
#
# Revision: 0
# Processed by: cddbd v1.5.2PL0 Copyright (c) Steve Scherf et al.
# Submitted via: ExactAudioCopy v0.99pb4
#
DISCID=ab0f8f0c
DTITLE=Toan Nguyen - Tien Chien 1
DYEAR=2006
DGENRE=Country
TTITLE0=Noi long nguoi di_Toan Nguyen
TTITLE1=Co nhung niem rieng_Toan Nguyen
TTITLE2=Dem dong_Toan Nguyen
TTITLE3=Doi da vang_Toan Nguyen
TTITLE4=Gui gio cho may ngan bay_Toan Nguyen
TTITLE5=Gui nguoi em gai_Toan Nguyen
TTITLE6=Hoai cam_Toan Nguyen
TTITLE7=Mat le cho nang_Toan Nguyen
TTITLE8=Niem khuc cuoi_Toan Nguyen
TTITLE9=Nua hon thuong dau_Toan Nguyen
TTITLE10=Tinh khuc thu nhat_Toan Nguyen
TTITLE11=Mot ngay nao do cho anh gap lai em_Toan Nguyen
EXTD=
EXTT0=
EXTT1=
EXTT2=
EXTT3=
EXTT4=
EXTT5=
EXTT6=
EXTT7=
EXTT8=
EXTT9=
EXTT10=
EXTT11=
PLAYORDER=
